<?xml version="1.0" encoding="UTF-8"?>
<svg version="1.1" xmlns="http://www.w3.org/2000/svg" width="1024" height="1024">
<path d="M0 0 C337.92 0 675.84 0 1024 0 C1024 337.92 1024 675.84 1024 1024 C686.08 1024 348.16 1024 0 1024 C0 686.08 0 348.16 0 0 Z " fill="#151515" transform="translate(0,0)"/>
<path d="M0 0 C0.94875 0.27714844 1.8975 0.55429688 2.875 0.83984375 C24.23316203 7.57635706 42.61294835 24.43772146 53.3671875 43.6953125 C55.20960508 47.42422463 56.81932502 51.18245511 58.3125 55.0625 C58.55508545 55.68664795 58.7976709 56.3107959 59.04760742 56.95385742 C62.50853883 66.44358698 63.38987956 76.08364917 63.375 86.125 C63.37411377 87.21087402 63.37322754 88.29674805 63.37231445 89.41552734 C63.21831726 99.99208606 61.72719699 109.92075898 57.36328125 119.6484375 C55.61819503 123.74953095 55.61819503 123.74953095 56 128 C57.74190372 130.6163817 59.81042448 132.87994535 61.9375 135.1875 C62.53143555 135.85168945 63.12537109 136.51587891 63.73730469 137.20019531 C65.47986012 139.14443104 67.23745933 141.07388728 69 143 C70.58422249 144.74919512 72.16769722 146.49906815 73.75 148.25 C74.45898438 149.03117188 75.16796875 149.81234375 75.8984375 150.6171875 C78.13113312 153.14868253 80.25644655 155.74739484 82.375 158.375 C86.53562075 163.51758543 90.94356304 168.37451737 95.4375 173.22265625 C98.10186139 176.1104016 100.69380703 179.04969384 103.265625 182.01953125 C105.27264538 184.31133155 107.32402851 186.55996752 109.375 188.8125 C112.42858867 192.18940982 115.34429205 195.63217132 118.1875 199.1875 C122.49406264 204.51979385 127.13594489 209.47195923 131.84204102 214.44750977 C136.02365114 218.89135358 139.91897587 223.48771327 143.7265625 228.2578125 C146.37342215 231.45041641 149.16566643 234.47440868 152 237.5 C156.43837137 242.23861823 160.59142657 247.12119833 164.65625 252.1875 C167.33208278 255.39849934 170.14359707 258.45027636 173 261.5 C177.45550447 266.25743042 181.6313357 271.15818292 185.71484375 276.2421875 C189.14347592 280.37998974 192.79892913 284.29671107 196.44921875 288.23828125 C200.67333272 292.81170939 204.73432248 297.51670681 208.77734375 302.25 C209.80984183 303.45837948 210.84239546 304.6667115 211.875 305.875 C212.39481445 306.4836792 212.91462891 307.0923584 213.45019531 307.71948242 C216.47918656 311.25662058 219.55164023 314.74409531 222.6875 318.1875 C225.64132181 321.43670399 228.44449748 324.75874685 231.1875 328.1875 C235.49341648 333.51899379 240.13461847 338.47036093 244.83984375 343.4453125 C249.04278996 347.91208001 252.96488699 352.53023881 256.79296875 357.32421875 C259.25978703 360.31496304 261.8596858 363.16363635 264.5 366 C268.78965697 370.60993554 272.80411572 375.37784075 276.75390625 380.28515625 C279.0883059 383.10673495 281.51990598 385.80590712 284 388.5 C288.89617712 393.82259379 293.46818797 399.36658149 298 405 C301.02236935 409.05354056 301.02236935 409.05354056 305 412 C306.79435276 412.1183291 308.59265795 412.17902959 310.390625 412.2109375 C334.64343144 412.78719588 334.64343144 412.78719588 345 416 C345.93730957 416.28786377 345.93730957 416.28786377 346.89355469 416.58154297 C357.30513775 419.87034551 366.18947619 424.5844914 375 431 C376.46759766 432.06734375 376.46759766 432.06734375 377.96484375 433.15625 C396.83537503 447.76569357 408.39148323 468.98697608 412.59375 492.29296875 C415.37765039 517.69605981 410.0476858 542.76893099 394.125 563.25 C392.7715948 564.85183139 391.39660848 566.4356937 390 568 C388.98486328 569.13888672 388.98486328 569.13888672 387.94921875 570.30078125 C374.00934199 585.05615355 355.72731398 594.12889737 336 598 C335.07316406 598.19207031 334.14632812 598.38414062 333.19140625 598.58203125 C315.81792821 600.85738272 298.10992621 598.94937993 282 592 C280.93523438 591.54109375 279.87046875 591.0821875 278.7734375 590.609375 C271.77464026 587.35485529 265.61766879 583.5355058 259.4375 578.9375 C258.77081299 578.44314453 258.10412598 577.94878906 257.41723633 577.43945312 C253.34575849 574.31431319 250.14253351 571.0593571 247 567 C236.56620082 573.55402924 226.28793263 580.34542737 216 587.125 C215.04037354 587.75704346 214.08074707 588.38908691 213.09204102 589.0402832 C197.93986981 599.02487161 182.86981414 609.12546359 167.84362793 619.29840088 C153.12610802 629.25940658 138.31697342 639.07371431 123.46337891 648.83041382 C107.94021266 659.02926466 92.51989487 669.36870932 77.18359375 679.84619141 C74.97656302 681.33932216 72.76469374 682.81640021 70.53515625 684.27490234 C69.44074219 684.99242676 68.34632813 685.70995117 67.21875 686.44921875 C65.74825195 687.40380981 65.74825195 687.40380981 64.24804688 688.37768555 C61.90443102 689.80481747 61.90443102 689.80481747 61 692 C61.38657774 693.95308304 61.85816493 695.8897787 62.375 697.8125 C66.95143367 715.02758928 65.82971733 731.95470597 61 749 C60.72285156 750.07378906 60.44570313 751.14757812 60.16015625 752.25390625 C56.379791 765.33710579 48.45941573 776.39939896 39 786 C38.21109375 786.8971875 38.21109375 786.8971875 37.40625 787.8125 C23.30475298 803.35292529 -0.15334348 813.21396735 -20.79296875 814.4140625 C-49.72349233 815.41127689 -74.25782016 807.14062535 -95.6015625 787.38818359 C-107.42919466 776.03808826 -116.25808152 761.01541108 -120 745 C-120.27585937 744.02804687 -120.55171875 743.05609375 -120.8359375 742.0546875 C-125.09631983 725.52127717 -124.39875077 707.19625231 -119 691 C-129.52317875 683.01813844 -140.64330003 675.91721522 -151.6875 668.6875 C-163.19777684 661.14688334 -174.68633006 653.59143828 -186.0012207 645.76000977 C-193.87192079 640.31516579 -201.81680113 634.97813592 -209.75 629.625 C-210.66453949 629.00759949 -211.57907898 628.39019897 -212.52133179 627.75408936 C-227.98599712 617.31956475 -243.53675309 607.02045917 -259.12731934 596.77526855 C-294.70282764 573.39484099 -294.70282764 573.39484099 -301.10327148 568.33837891 C-302.88606999 566.80138754 -302.88606999 566.80138754 -305.00390625 567.03125 C-307.72928086 568.3539367 -309.0418705 570.14228807 -310.9375 572.5 C-324.42933992 587.95388853 -345.72192228 597.66333197 -366.08007812 599.23828125 C-394.70485641 600.46681251 -419.2327529 592.58283954 -441.0625 573.75 C-459.76346133 556.44418976 -470.06667995 534.55627859 -471.28515625 509.1875 C-472.02132469 483.12661505 -461.92463151 460.02944809 -444.23828125 441.14428711 C-429.34548701 425.92221277 -408.25020274 415.301466 -387 413 C-383.88601811 413.05391312 -380.80722969 413.26433748 -377.70117188 413.48706055 C-367.36526685 414.45985438 -367.36526685 414.45985438 -358.25 410.5 C-355.79422281 407.83249665 -353.88253836 404.87362805 -352.05908203 401.74853516 C-350.44058615 399.07641263 -348.44880271 396.75889395 -346.4375 394.375 C-345.71433594 393.48554687 -344.99117188 392.59609375 -344.24609375 391.6796875 C-341.09982145 387.92604785 -337.77780545 384.34481639 -334.4609375 380.7421875 C-332.08960105 378.09984117 -329.84747003 375.39305833 -327.625 372.625 C-323.75781137 367.8285929 -319.65019284 363.3295854 -315.44189453 358.83642578 C-312.32460664 355.48918215 -309.36433518 352.07004094 -306.5 348.5 C-303.15697644 344.33333295 -299.64881274 340.39584097 -296 336.5 C-291.50036444 331.69458458 -287.2689633 326.74838493 -283.14453125 321.61328125 C-281.00125044 319.00152377 -278.7761967 316.49634698 -276.5 314 C-273.42346328 310.62539052 -270.48881783 307.18184136 -267.625 303.625 C-263.94363311 299.07139288 -260.07225527 294.76417484 -256.08642578 290.48095703 C-253.09587359 287.24823796 -250.26228315 283.93312334 -247.5 280.5 C-244.30068278 276.52370574 -240.97415055 272.73331702 -237.5 269 C-233.2104224 264.38998361 -229.19589103 259.62216764 -225.24609375 254.71484375 C-222.11832821 250.93432714 -218.78726117 247.35519125 -215.46484375 243.74609375 C-213.07292703 241.08124834 -210.80745116 238.35168175 -208.5625 235.5625 C-204.90493736 231.02763839 -201.05382973 226.74463817 -197.08837891 222.48291016 C-193.28601193 218.37220724 -189.75729408 214.07724416 -186.24609375 209.71484375 C-183.11832821 205.93432714 -179.78726117 202.35519125 -176.46484375 198.74609375 C-174.07292703 196.08124834 -171.80745116 193.35168175 -169.5625 190.5625 C-165.90493736 186.02763839 -162.05382973 181.74463817 -158.08837891 177.48291016 C-154.28601193 173.37220724 -150.75729408 169.07724416 -147.24609375 164.71484375 C-144.9116941 161.89326505 -142.48009402 159.19409288 -140 156.5 C-135.91510284 152.06208704 -132.08948722 147.47481745 -128.30859375 142.77734375 C-125.04197934 138.84745738 -121.56788546 135.13082038 -118.06640625 131.41015625 C-115.48036831 128.49464677 -115.48036831 128.49464677 -114 125 C-114.79495861 122.10968082 -114.79495861 122.10968082 -116.25 119.0625 C-124.40439277 98.90981815 -123.57368286 73.19967601 -115.33374023 53.23950195 C-104.97664861 29.25947987 -87.5327535 11.82025589 -63.4609375 1.35546875 C-43.53479532 -6.4485621 -20.27915155 -6.99533232 0 0 Z " fill="#151515" transform="translate(541,130)"/>
<path d="M0 0 C0.94875 0.27714844 1.8975 0.55429688 2.875 0.83984375 C24.23316203 7.57635706 42.61294835 24.43772146 53.3671875 43.6953125 C55.20960508 47.42422463 56.81932502 51.18245511 58.3125 55.0625 C58.55508545 55.68664795 58.7976709 56.3107959 59.04760742 56.95385742 C62.50853883 66.44358698 63.38987956 76.08364917 63.375 86.125 C63.37411377 87.21087402 63.37322754 88.29674805 63.37231445 89.41552734 C63.21831726 99.99208606 61.72719699 109.92075898 57.36328125 119.6484375 C55.61819503 123.74953095 55.61819503 123.74953095 56 128 C57.74190372 130.6163817 59.81042448 132.87994535 61.9375 135.1875 C62.53143555 135.85168945 63.12537109 136.51587891 63.73730469 137.20019531 C65.47986012 139.14443104 67.23745933 141.07388728 69 143 C70.58422249 144.74919512 72.16769722 146.49906815 73.75 148.25 C74.45898438 149.03117188 75.16796875 149.81234375 75.8984375 150.6171875 C78.13113312 153.14868253 80.25644655 155.74739484 82.375 158.375 C86.53562075 163.51758543 90.94356304 168.37451737 95.4375 173.22265625 C98.10186139 176.1104016 100.69380703 179.04969384 103.265625 182.01953125 C105.27264538 184.31133155 107.32402851 186.55996752 109.375 188.8125 C112.42858867 192.18940982 115.34429205 195.63217132 118.1875 199.1875 C122.49406264 204.51979385 127.13594489 209.47195923 131.84204102 214.44750977 C136.02365114 218.89135358 139.91897587 223.48771327 143.7265625 228.2578125 C146.37342215 231.45041641 149.16566643 234.47440868 152 237.5 C156.43837137 242.23861823 160.59142657 247.12119833 164.65625 252.1875 C167.33208278 255.39849934 170.14359707 258.45027636 173 261.5 C177.45550447 266.25743042 181.6313357 271.15818292 185.71484375 276.2421875 C189.14347592 280.37998974 192.79892913 284.29671107 196.44921875 288.23828125 C200.67333272 292.81170939 204.73432248 297.51670681 208.77734375 302.25 C209.80984183 303.45837948 210.84239546 304.6667115 211.875 305.875 C212.39481445 306.4836792 212.91462891 307.0923584 213.45019531 307.71948242 C216.47918656 311.25662058 219.55164023 314.74409531 222.6875 318.1875 C225.64132181 321.43670399 228.44449748 324.75874685 231.1875 328.1875 C235.49341648 333.51899379 240.13461847 338.47036093 244.83984375 343.4453125 C249.04278996 347.91208001 252.96488699 352.53023881 256.79296875 357.32421875 C259.25978703 360.31496304 261.8596858 363.16363635 264.5 366 C268.78965697 370.60993554 272.80411572 375.37784075 276.75390625 380.28515625 C279.0883059 383.10673495 281.51990598 385.80590712 284 388.5 C288.89617712 393.82259379 293.46818797 399.36658149 298 405 C301.02236935 409.05354056 301.02236935 409.05354056 305 412 C306.79435276 412.1183291 308.59265795 412.17902959 310.390625 412.2109375 C334.64343144 412.78719588 334.64343144 412.78719588 345 416 C345.93730957 416.28786377 345.93730957 416.28786377 346.89355469 416.58154297 C357.30513775 419.87034551 366.18947619 424.5844914 375 431 C376.46759766 432.06734375 376.46759766 432.06734375 377.96484375 433.15625 C396.83537503 447.76569357 408.39148323 468.98697608 412.59375 492.29296875 C415.37765039 517.69605981 410.0476858 542.76893099 394.125 563.25 C392.7715948 564.85183139 391.39660848 566.4356937 390 568 C388.98486328 569.13888672 388.98486328 569.13888672 387.94921875 570.30078125 C374.00934199 585.05615355 355.72731398 594.12889737 336 598 C335.07316406 598.19207031 334.14632812 598.38414062 333.19140625 598.58203125 C315.81792821 600.85738272 298.10992621 598.94937993 282 592 C280.93523438 591.54109375 279.87046875 591.0821875 278.7734375 590.609375 C271.77464026 587.35485529 265.61766879 583.5355058 259.4375 578.9375 C258.77081299 578.44314453 258.10412598 577.94878906 257.41723633 577.43945312 C253.34575849 574.31431319 250.14253351 571.0593571 247 567 C236.56620082 573.55402924 226.28793263 580.34542737 216 587.125 C215.04037354 587.75704346 214.08074707 588.38908691 213.09204102 589.0402832 C197.93986981 599.02487161 182.86981414 609.12546359 167.84362793 619.29840088 C153.12610802 629.25940658 138.31697342 639.07371431 123.46337891 648.83041382 C107.94021266 659.02926466 92.51989487 669.36870932 77.18359375 679.84619141 C74.97656302 681.33932216 72.76469374 682.81640021 70.53515625 684.27490234 C69.44074219 684.99242676 68.34632813 685.70995117 67.21875 686.44921875 C65.74825195 687.40380981 65.74825195 687.40380981 64.24804688 688.37768555 C61.90443102 689.80481747 61.90443102 689.80481747 61 692 C61.38657774 693.95308304 61.85816493 695.8897787 62.375 697.8125 C66.95143367 715.02758928 65.82971733 731.95470597 61 749 C60.72285156 750.07378906 60.44570313 751.14757812 60.16015625 752.25390625 C56.379791 765.33710579 48.45941573 776.39939896 39 786 C38.21109375 786.8971875 38.21109375 786.8971875 37.40625 787.8125 C23.30475298 803.35292529 -0.15334348 813.21396735 -20.79296875 814.4140625 C-49.72349233 815.41127689 -74.25782016 807.14062535 -95.6015625 787.38818359 C-107.42919466 776.03808826 -116.25808152 761.01541108 -120 745 C-120.27585937 744.02804687 -120.55171875 743.05609375 -120.8359375 742.0546875 C-125.09631983 725.52127717 -124.39875077 707.19625231 -119 691 C-129.52317875 683.01813844 -140.64330003 675.91721522 -151.6875 668.6875 C-163.19777684 661.14688334 -174.68633006 653.59143828 -186.0012207 645.76000977 C-193.87192079 640.31516579 -201.81680113 634.97813592 -209.75 629.625 C-210.66453949 629.00759949 -211.57907898 628.39019897 -212.52133179 627.75408936 C-227.98599712 617.31956475 -243.53675309 607.02045917 -259.12731934 596.77526855 C-294.70282764 573.39484099 -294.70282764 573.39484099 -301.10327148 568.33837891 C-302.88606999 566.80138754 -302.88606999 566.80138754 -305.00390625 567.03125 C-307.72928086 568.3539367 -309.0418705 570.14228807 -310.9375 572.5 C-324.42933992 587.95388853 -345.72192228 597.66333197 -366.08007812 599.23828125 C-394.70485641 600.46681251 -419.2327529 592.58283954 -441.0625 573.75 C-459.76346133 556.44418976 -470.06667995 534.55627859 -471.28515625 509.1875 C-472.02132469 483.12661505 -461.92463151 460.02944809 -444.23828125 441.14428711 C-429.34548701 425.92221277 -408.25020274 415.301466 -387 413 C-383.88601811 413.05391312 -380.80722969 413.26433748 -377.70117188 413.48706055 C-367.36526685 414.45985438 -367.36526685 414.45985438 -358.25 410.5 C-355.79422281 407.83249665 -353.88253836 404.87362805 -352.05908203 401.74853516 C-350.44058615 399.07641263 -348.44880271 396.75889395 -346.4375 394.375 C-345.71433594 393.48554687 -344.99117188 392.59609375 -344.24609375 391.6796875 C-341.09982145 387.92604785 -337.77780545 384.34481639 -334.4609375 380.7421875 C-332.08960105 378.09984117 -329.84747003 375.39305833 -327.625 372.625 C-323.75781137 367.8285929 -319.65019284 363.3295854 -315.44189453 358.83642578 C-312.32460664 355.48918215 -309.36433518 352.07004094 -306.5 348.5 C-303.15697644 344.33333295 -299.64881274 340.39584097 -296 336.5 C-291.50036444 331.69458458 -287.2689633 326.74838493 -283.14453125 321.61328125 C-281.00125044 319.00152377 -278.7761967 316.49634698 -276.5 314 C-273.42346328 310.62539052 -270.48881783 307.18184136 -267.625 303.625 C-263.94363311 299.07139288 -260.07225527 294.76417484 -256.08642578 290.48095703 C-253.09587359 287.24823796 -250.26228315 283.93312334 -247.5 280.5 C-244.30068278 276.52370574 -240.97415055 272.73331702 -237.5 269 C-233.2104224 264.38998361 -229.19589103 259.62216764 -225.24609375 254.71484375 C-222.11832821 250.93432714 -218.78726117 247.35519125 -215.46484375 243.74609375 C-213.07292703 241.08124834 -210.80745116 238.35168175 -208.5625 235.5625 C-204.90493736 231.02763839 -201.05382973 226.74463817 -197.08837891 222.48291016 C-193.28601193 218.37220724 -189.75729408 214.07724416 -186.24609375 209.71484375 C-183.11832821 205.93432714 -179.78726117 202.35519125 -176.46484375 198.74609375 C-174.07292703 196.08124834 -171.80745116 193.35168175 -169.5625 190.5625 C-165.90493736 186.02763839 -162.05382973 181.74463817 -158.08837891 177.48291016 C-154.28601193 173.37220724 -150.75729408 169.07724416 -147.24609375 164.71484375 C-144.9116941 161.89326505 -142.48009402 159.19409288 -140 156.5 C-135.91510284 152.06208704 -132.08948722 147.47481745 -128.30859375 142.77734375 C-125.04197934 138.84745738 -121.56788546 135.13082038 -118.06640625 131.41015625 C-115.48036831 128.49464677 -115.48036831 128.49464677 -114 125 C-114.79495861 122.10968082 -114.79495861 122.10968082 -116.25 119.0625 C-124.40439277 98.90981815 -123.57368286 73.19967601 -115.33374023 53.23950195 C-104.97664861 29.25947987 -87.5327535 11.82025589 -63.4609375 1.35546875 C-43.53479532 -6.4485621 -20.27915155 -6.99533232 0 0 Z M-93.06640625 157.01953125 C-93.89011719 157.94121094 -94.71382812 158.86289062 -95.5625 159.8125 C-96.00795166 160.30951416 -96.45340332 160.80652832 -96.91235352 161.31860352 C-100.62817098 165.49832158 -104.1416556 169.83083578 -107.65234375 174.18359375 C-110.62077477 177.74472315 -113.75649449 181.12643157 -116.91381836 184.51928711 C-119.90427 187.75193975 -122.73779007 191.06696766 -125.5 194.5 C-129.1356405 199.01858176 -132.96836402 203.27983329 -136.91625977 207.52172852 C-139.88715628 210.7329905 -142.69961077 214.02627815 -145.4375 217.4375 C-148.80346464 221.62237553 -152.33177829 225.58312431 -156 229.5 C-160.47915827 234.28316399 -164.68451422 239.20814948 -168.7890625 244.3203125 C-171.1093495 247.13253315 -173.53071134 249.81797263 -176 252.5 C-179.27418423 256.05670244 -182.40642433 259.67161811 -185.4375 263.4375 C-189.09506264 267.97236161 -192.94617027 272.25536183 -196.91162109 276.51708984 C-200.71398807 280.62779276 -204.24270592 284.92275584 -207.75390625 289.28515625 C-210.88284821 293.06709479 -214.21517445 296.6475587 -217.5390625 300.2578125 C-219.91039895 302.90015883 -222.15252997 305.60694167 -224.375 308.375 C-228.24218863 313.1714071 -232.34980716 317.6704146 -236.55810547 322.16357422 C-239.67539336 325.51081785 -242.63566482 328.92995906 -245.5 332.5 C-248.84301959 336.6666621 -252.35115137 340.60419812 -256 344.5 C-260.45874444 349.26088994 -264.6379783 354.1646782 -268.72265625 359.25390625 C-271.21826469 362.26319052 -273.83765143 365.13938654 -276.5 368 C-279.97419243 371.73327255 -283.3006871 375.52371111 -286.5 379.5 C-290.13499389 384.01777813 -293.9671029 388.27818516 -297.9140625 392.51953125 C-300.90441358 395.75211747 -303.73786329 399.06705866 -306.5 402.5 C-310.60300303 407.59923578 -314.95916453 412.39337368 -319.421875 417.17578125 C-324.52746262 422.01083722 -324.52746262 422.01083722 -327 428 C-325.42283761 429.25033597 -323.78498678 430.42442042 -322.125 431.5625 C-301.89742636 446.04771898 -288.87649217 465.22856785 -284.40722656 489.92578125 C-283.61112284 495.93569614 -283.52389541 501.94444051 -283.5 508 C-283.49371582 509.20398438 -283.48743164 510.40796875 -283.48095703 511.6484375 C-283.59215892 519.47359575 -284.75590188 526.50594756 -287 534 C-275.51523302 542.7191872 -263.31223419 550.40967373 -251.25073242 558.29492188 C-232.25184943 570.72442463 -232.25184943 570.72442463 -223.32739258 577.21113586 C-215.59044671 582.79661978 -207.55550557 587.94873821 -199.57296753 593.17333984 C-194.64278812 596.40120445 -189.71958315 599.63966268 -184.796875 602.87890625 C-183.8377269 603.50999298 -182.8785788 604.14107971 -181.8903656 604.79129028 C-174.11934827 609.90985554 -166.40182251 615.09976074 -158.72460938 620.3581543 C-151.86225465 625.05760427 -144.97623709 629.72038696 -138.078125 634.3671875 C-137.10468643 635.02297791 -136.13124786 635.67876831 -135.12831116 636.35443115 C-131.16774679 639.02207973 -127.2068402 641.68921688 -123.24484253 644.35473633 C-120.46863066 646.22259939 -117.69324952 648.09169139 -114.91796875 649.9609375 C-114.07747986 650.5257785 -113.23699097 651.09061951 -112.37103271 651.6725769 C-111.59012268 652.19876617 -110.80921265 652.72495544 -110.00463867 653.26708984 C-109.32503586 653.72433441 -108.64543304 654.18157898 -107.94523621 654.65267944 C-106.55582375 655.61502219 -105.20040015 656.62720073 -103.87055969 657.6703186 C-102.11983063 659.18517056 -102.11983063 659.18517056 -100.06640625 659.0078125 C-97.04069356 657.5321341 -95.21706704 655.33921533 -92.9375 652.875 C-78.54594564 637.89761618 -56.6544327 628.2408946 -35.87890625 627.734375 C-33.77343755 627.72914727 -31.66791764 627.73443314 -29.5625 627.75 C-28.52029297 627.74226563 -27.47808594 627.73453125 -26.40429688 627.7265625 C-16.21174292 627.75183852 -6.44535245 628.96886107 3.0625 632.75 C4.07908691 633.14578247 4.07908691 633.14578247 5.11621094 633.54956055 C19.39307466 639.24439772 32.12914116 648.12914116 43 659 C43.8986377 658.4006665 44.79727539 657.80133301 45.72314453 657.18383789 C51.76801276 653.15285096 57.81355399 649.12289633 63.86351013 645.09954834 C78.53260841 635.34405662 93.185246 625.56805385 107.73193359 615.63061523 C114.45573647 611.0379599 121.21704102 606.50479626 128 602 C143.95628947 591.40085384 159.85294531 580.71616698 175.72506714 569.99145508 C185.48569206 563.39641803 195.25372362 556.814253 205.07421875 550.30859375 C205.85230392 549.79262634 206.6303891 549.27665894 207.43205261 548.74505615 C211.07172805 546.33221882 214.71457592 543.9244337 218.36303711 541.52490234 C219.64057257 540.67952869 220.91800433 539.83399829 222.1953125 538.98828125 C222.77540573 538.60949326 223.35549896 538.23070526 223.95317078 537.84043884 C226.98124438 535.89768277 226.98124438 535.89768277 229 533 C228.58983878 531.23663993 228.10807315 529.48974687 227.59375 527.75390625 C225.76889105 520.76382154 225.46158888 514.13718474 225.5 506.9375 C225.50966797 505.03158081 225.50966797 505.03158081 225.51953125 503.0871582 C226.00370842 477.9529478 236.65891926 455.44827315 254.125 437.5 C258.16076434 433.63026394 262.39267061 430.16593025 267 427 C266.12771543 422.55547395 263.63316751 419.92614747 260.6875 416.625 C259.58959407 415.37131236 258.49194504 414.1173997 257.39453125 412.86328125 C256.83072754 412.22342285 256.26692383 411.58356445 255.68603516 410.92431641 C253.55749612 408.49495864 251.46514815 406.03608921 249.37353516 403.57495117 C245.26582996 398.74381338 241.10422659 393.98232306 236.8125 389.3125 C233.64169258 385.85984304 230.61964969 382.34469034 227.6875 378.6875 C223.61251555 373.63163433 219.24768006 368.91812777 214.79980469 364.19433594 C210.75760202 359.87808563 207.004192 355.39514634 203.30859375 350.77734375 C200.64720542 347.57557201 197.84537754 344.53765082 195 341.5 C190.56165094 336.76135857 186.40857547 331.87880421 182.34375 326.8125 C179.18196559 323.01835871 175.81454636 319.43716235 172.43920898 315.83374023 C169.34219916 312.508452 166.40378316 309.11280061 163.5625 305.5625 C160.05356861 301.18748028 156.34155495 297.07979091 152.5 293 C147.87706979 288.09037644 143.5339901 283.05521692 139.31640625 277.7890625 C135.64013503 273.36265837 131.69573628 269.19198888 127.7734375 264.984375 C123.48018201 260.37851774 119.37670578 255.6189993 115.296875 250.82421875 C114.28156606 249.63254314 113.26593033 248.4411459 112.25 247.25 C111.73526123 246.64639648 111.22052246 246.04279297 110.69018555 245.42089844 C107.30910541 241.47534047 103.84903479 237.61891344 100.3125 233.8125 C96.92475627 230.16586624 93.68102204 226.44382599 90.5625 222.5625 C86.19859541 217.14091657 81.5157847 212.07157883 76.7734375 206.984375 C72.46894486 202.36646239 68.35687595 197.59238393 64.26171875 192.7890625 C63.23716908 191.58837959 62.21242354 190.38786379 61.1875 189.1875 C60.67018311 188.58131836 60.15286621 187.97513672 59.61987305 187.35058594 C56.41497771 183.6092918 53.14790722 179.93884617 49.8125 176.3125 C45.65711783 171.78849521 41.74957939 167.10655285 37.91015625 162.3125 C36.34960398 160.42324244 34.77142472 158.68812889 33 157 C29.40325977 158.28679188 26.79000906 159.81742448 23.8125 162.1875 C8.28844231 173.36295117 -10.7752322 176.17806807 -29.375 176.1875 C-30.63828125 176.19974609 -31.9015625 176.21199219 -33.203125 176.22460938 C-43.45373987 176.24059266 -52.38856452 174.94694729 -61.9375 171.25 C-62.62134766 170.98759521 -63.30519531 170.72519043 -64.00976562 170.45483398 C-72.84455968 166.98002238 -80.54984027 162.93965446 -87.44140625 156.3203125 C-90.02328992 154.1331529 -90.69493603 154.70185619 -93.06640625 157.01953125 Z " fill="#4F8C55" transform="translate(541,130)"/>
<path d="M0 0 C3.61345275 2.71797231 6.3991616 5.5103766 9.1875 9.0625 C12.34106986 13.00053998 15.57906128 16.79176627 19 20.5 C22.27418423 24.05670244 25.40642433 27.67161811 28.4375 31.4375 C32.57411397 36.56250846 36.96319216 41.39563155 41.4375 46.22265625 C44.10186139 49.1104016 46.69380703 52.04969384 49.265625 55.01953125 C51.27264538 57.31133155 53.32402851 59.55996752 55.375 61.8125 C58.42858867 65.18940982 61.34429205 68.63217132 64.1875 72.1875 C68.49406264 77.51979385 73.13594489 82.47195923 77.84204102 87.44750977 C82.02365114 91.89135358 85.91897587 96.48771327 89.7265625 101.2578125 C92.37342215 104.45041641 95.16566643 107.47440868 98 110.5 C102.43837137 115.23861823 106.59142657 120.12119833 110.65625 125.1875 C113.33208278 128.39849934 116.14359707 131.45027636 119 134.5 C123.45550447 139.25743042 127.6313357 144.15818292 131.71484375 149.2421875 C135.14347592 153.37998974 138.79892913 157.29671107 142.44921875 161.23828125 C146.67333272 165.81170939 150.73432248 170.51670681 154.77734375 175.25 C155.80984183 176.45837948 156.84239546 177.6667115 157.875 178.875 C158.39481445 179.4836792 158.91462891 180.0923584 159.45019531 180.71948242 C162.47918656 184.25662058 165.55164023 187.74409531 168.6875 191.1875 C171.64132181 194.43670399 174.44449748 197.75874685 177.1875 201.1875 C181.49341648 206.51899379 186.13461847 211.47036093 190.83984375 216.4453125 C195.04278996 220.91208001 198.96488699 225.53023881 202.79296875 230.32421875 C205.25978703 233.31496304 207.8596858 236.16363635 210.5 239 C214.78965697 243.60993554 218.80411572 248.37784075 222.75390625 253.28515625 C225.0883059 256.10673495 227.51990598 258.80590712 230 261.5 C234.89617712 266.82259379 239.46818797 272.36658149 244 278 C247.02236935 282.05354056 247.02236935 282.05354056 251 285 C252.79435276 285.1183291 254.59265795 285.17902959 256.390625 285.2109375 C280.64343144 285.78719588 280.64343144 285.78719588 291 289 C291.93730957 289.28786377 291.93730957 289.28786377 292.89355469 289.58154297 C303.30513775 292.87034551 312.18947619 297.5844914 321 304 C322.46759766 305.06734375 322.46759766 305.06734375 323.96484375 306.15625 C342.83537503 320.76569357 354.39148323 341.98697608 358.59375 365.29296875 C361.37765039 390.69605981 356.0476858 415.76893099 340.125 436.25 C338.7715948 437.85183139 337.39660848 439.4356937 336 441 C335.32324219 441.75925781 334.64648438 442.51851562 333.94921875 443.30078125 C320.00934199 458.05615355 301.72731398 467.12889737 282 471 C281.07316406 471.19207031 280.14632813 471.38414062 279.19140625 471.58203125 C261.81792821 473.85738272 244.10992621 471.94937993 228 465 C226.93523437 464.54109375 225.87046875 464.0821875 224.7734375 463.609375 C217.77464026 460.35485529 211.61766879 456.5355058 205.4375 451.9375 C204.77081299 451.44314453 204.10412598 450.94878906 203.41723633 450.43945312 C199.34575849 447.31431319 196.14253351 444.0593571 193 440 C182.56620082 446.55402924 172.28793263 453.34542737 162 460.125 C161.04037354 460.75704346 160.08074707 461.38908691 159.09204102 462.0402832 C143.93986981 472.02487161 128.86981414 482.12546359 113.84362793 492.29840088 C99.12610802 502.25940658 84.31697342 512.07371431 69.46337891 521.83041382 C55.59710293 530.94067381 41.80419262 540.14949569 28.0947876 549.49411011 C26.45472589 550.61150404 24.81332047 551.72692494 23.171875 552.84228516 C20.99074167 554.32603334 18.81418176 555.81534433 16.640625 557.31005859 C15.03960938 558.39988037 15.03960938 558.39988037 13.40625 559.51171875 C11.98795898 560.48371216 11.98795898 560.48371216 10.54101562 561.4753418 C8.27243463 562.83653399 6.5833554 563.5617251 4 564 C3.38125 562.52853516 3.38125 562.52853516 2.75 561.02734375 C-0.65421487 553.03865328 -4.28394418 545.2894813 -8.50976562 537.69897461 C-11 533.19251334 -11 533.19251334 -11 531 C-8.86203629 529.42077434 -6.72631427 527.96762698 -4.4921875 526.53515625 C-3.10374286 525.62791733 -1.71539965 524.72052316 -0.32714844 523.81298828 C0.39170532 523.34644836 1.11055908 522.87990845 1.85119629 522.39923096 C5.18597141 520.22773406 8.49458043 518.01743069 11.8046875 515.80859375 C13.1311678 514.92579602 14.45774789 514.04314823 15.78442383 513.16064453 C28.47633216 504.71264149 41.14259236 496.23091032 53.73193359 487.63061523 C60.45573647 483.0379599 67.21704102 478.50479626 74 474 C89.95577989 463.40119234 105.84894017 452.71260889 121.72406006 441.99346924 C139.10377203 430.26021313 156.53413244 418.60454552 174 407 C173.78923828 406.22543457 173.57847656 405.45086914 173.36132812 404.65283203 C171.24079473 396.29917782 170.45377006 388.48012638 170.5 379.875 C170.50966797 377.97584839 170.50966797 377.97584839 170.51953125 376.03833008 C171.03913914 349.16058658 183.25550518 325.76263138 202.4375 307.2890625 C205.48783606 304.56421962 208.56434369 302.21408962 212 300 C211.12771543 295.55547395 208.63316751 292.92614747 205.6875 289.625 C204.58959407 288.37131236 203.49194504 287.1173997 202.39453125 285.86328125 C201.83072754 285.22342285 201.26692383 284.58356445 200.68603516 283.92431641 C198.55749612 281.49495864 196.46514815 279.03608921 194.37353516 276.57495117 C190.26582996 271.74381338 186.10422659 266.98232306 181.8125 262.3125 C178.64169258 258.85984304 175.61964969 255.34469034 172.6875 251.6875 C168.61251555 246.63163433 164.24768006 241.91812777 159.79980469 237.19433594 C155.75760202 232.87808563 152.004192 228.39514634 148.30859375 223.77734375 C145.64720542 220.57557201 142.84537754 217.53765082 140 214.5 C135.56165094 209.76135857 131.40857547 204.87880421 127.34375 199.8125 C124.18196559 196.01835871 120.81454636 192.43716235 117.43920898 188.83374023 C114.34219916 185.508452 111.40378316 182.11280061 108.5625 178.5625 C105.05356861 174.18748028 101.34155495 170.07979091 97.5 166 C92.87706979 161.09037644 88.5339901 156.05521692 84.31640625 150.7890625 C80.64013503 146.36265837 76.69573628 142.19198888 72.7734375 137.984375 C68.48018201 133.37851774 64.37670578 128.6189993 60.296875 123.82421875 C59.28156606 122.63254314 58.26593033 121.4411459 57.25 120.25 C56.73526123 119.64639648 56.22052246 119.04279297 55.69018555 118.42089844 C52.30910541 114.47534047 48.84903479 110.61891344 45.3125 106.8125 C41.92475627 103.16586624 38.68102204 99.44382599 35.5625 95.5625 C31.19859541 90.14091657 26.5157847 85.07157883 21.7734375 79.984375 C17.46894486 75.36646239 13.35687595 70.59238393 9.26171875 65.7890625 C8.23716908 64.58837959 7.21242354 63.38786379 6.1875 62.1875 C5.67018311 61.58131836 5.15286621 60.97513672 4.61987305 60.35058594 C1.41497771 56.6092918 -1.85209278 52.93884617 -5.1875 49.3125 C-9.37310187 44.7549949 -13.31233643 40.03803841 -17.1875 35.21484375 C-18.96126357 32.97246433 -18.96126357 32.97246433 -21 31 C-20.74038849 27.15450458 -18.61072495 25.28105004 -16 22.625 C-10.40593845 16.61921552 -6.27979372 9.95805787 -2 3 C-1.34 2.01 -0.68 1.02 0 0 Z " fill="#4F8C55" transform="translate(595,257)"/>
<path d="M0 0 C1.04220703 -0.00773438 2.08441406 -0.01546875 3.15820312 -0.0234375 C13.35075708 0.00183852 23.11714755 1.21886107 32.625 5 C33.30272461 5.26385498 33.98044922 5.52770996 34.67871094 5.79956055 C45.48024458 10.10813816 54.4431096 16.06735778 63.5625 23.25 C64.64337891 23.9925 64.64337891 23.9925 65.74609375 24.75 C73.45509216 30.45807126 77.29313771 39.90512853 81.5625 48.25 C82.13085571 49.33510864 82.13085571 49.33510864 82.71069336 50.44213867 C84.46002732 53.83149788 85.96152197 56.8972864 86.625 60.6875 C86.934375 61.863125 87.24375 63.03875 87.5625 64.25 C88.5525 64.58 89.5425 64.91 90.5625 65.25 C91.4765625 67.796875 91.4765625 67.796875 92.1875 71 C92.42726563 72.04671875 92.66703125 73.0934375 92.9140625 74.171875 C93.23503906 75.69554687 93.23503906 75.69554687 93.5625 77.25 C93.84287109 78.36568359 93.84287109 78.36568359 94.12890625 79.50390625 C96.40274364 93.90487638 94.49770375 108.36167065 90.5625 122.25 C90.28535156 123.32378906 90.00820313 124.39757812 89.72265625 125.50390625 C85.942291 138.58710579 78.02191573 149.64939896 68.5625 159.25 C68.0365625 159.848125 67.510625 160.44625 66.96875 161.0625 C52.86725298 176.60292529 29.40915652 186.46396735 8.76953125 187.6640625 C-20.16099233 188.66127689 -44.69532016 180.39062535 -66.0390625 160.63818359 C-77.86669466 149.28808826 -86.69558152 134.26541108 -90.4375 118.25 C-90.71335937 117.27804687 -90.98921875 116.30609375 -91.2734375 115.3046875 C-96.40521597 95.38962061 -94.89177816 72.12805283 -84.6484375 54.1015625 C-78.66552413 44.19164036 -72.32536227 34.74188776 -64.4375 26.25 C-63.64085937 25.35667969 -63.64085937 25.35667969 -62.828125 24.4453125 C-47.03892224 7.52830954 -22.52839071 -0.16656851 0 0 Z " fill="#4F8C55" transform="translate(511.4375,756.75)"/>
<path d="M0 0 C0.94875 0.27714844 1.8975 0.55429688 2.875 0.83984375 C24.23316203 7.57635706 42.61294835 24.43772146 53.3671875 43.6953125 C55.20960508 47.42422463 56.81932502 51.18245511 58.3125 55.0625 C58.67637817 55.99872192 58.67637817 55.99872192 59.04760742 56.95385742 C66.90945035 78.51070279 64.79232794 104.38628369 55.4609375 125.11328125 C44.72445155 146.32788852 28.94206586 163.53069262 6.375 171.9375 C5.62460449 172.21964355 4.87420898 172.50178711 4.10107422 172.79248047 C-6.96498014 176.68790336 -17.97345099 177.32282218 -29.625 177.25 C-30.87023437 177.25773438 -32.11546875 177.26546875 -33.3984375 177.2734375 C-43.55237552 177.25201569 -52.47793243 175.9155525 -61.9375 172.25 C-62.62569824 171.98396973 -63.31389648 171.71793945 -64.02294922 171.44384766 C-87.59345397 162.12245907 -104.73318408 143.47380804 -116 121 C-124.08150967 101.63766447 -123.91886838 74.95963717 -116.30078125 55.58203125 C-105.96551915 30.54622214 -88.49895718 12.24029549 -63.4609375 1.35546875 C-43.53479532 -6.4485621 -20.27915155 -6.99533232 0 0 Z " fill="#4F8C56" transform="translate(541,130)"/>
<path d="M0 0 C18.40723446 12.65938156 25.35923445 36.80792889 31.23950195 57.32910156 C31.84793508 59.45218613 32.46690277 61.57196368 33.08789062 63.69140625 C37.8810611 80.14022009 42.07074685 96.75012212 46.29522705 113.35189819 C54.11631188 144.06347599 62.07825714 174.72499114 70.78564453 205.19873047 C71.47839587 207.62622555 72.16659031 210.05502407 72.85107422 212.48486328 C73.1967041 213.70802246 73.54233398 214.93118164 73.8984375 216.19140625 C74.20491211 217.28018066 74.51138672 218.36895508 74.82714844 219.49072266 C78.63453838 232.25224336 83.66078917 244.16614617 95.87109375 250.85546875 C100.20876161 252.13296129 104.41354041 252.09617861 108.9140625 252.08984375 C109.85241943 252.09113281 110.79077637 252.09242188 111.75756836 252.09375 C117.94012918 251.99943339 123.07511334 251.26429754 128.73046875 248.58984375 C130.7890625 247.71484375 130.7890625 247.71484375 134.7890625 247.71484375 C134.93473657 251.27691097 135.02325446 254.83820926 135.1015625 258.40234375 C135.14345703 259.40974609 135.18535156 260.41714844 135.22851562 261.45507812 C135.35214477 268.94700429 135.35214477 268.94700429 132.5546875 272.76171875 C117.75643912 283.21245913 98.35107844 287.74874034 80.4609375 285.25 C67.04244076 282.56312091 56.75587078 276.19589181 48.8515625 264.9609375 C41.75164568 253.4694773 38.26871743 240.50294482 34.9140625 227.52734375 C34.57238361 226.2247971 34.23016857 224.92239098 33.88745117 223.62011719 C32.84592256 219.65394268 31.81619491 215.68476727 30.7890625 211.71484375 C30.47114746 210.48749512 30.15323242 209.26014648 29.82568359 207.99560547 C28.62525944 203.35820394 27.42522656 198.72070745 26.22973633 194.08203125 C24.39634513 186.98735168 22.48437473 179.9200311 20.49145508 172.86865234 C19.15923343 168.13051469 17.94883973 163.37283263 16.7890625 158.58984375 C14.80696143 150.5152189 12.35434383 142.6209567 9.7890625 134.71484375 C-5.25297333 160.63124419 -19.05238817 187.13567988 -32.67895508 213.81274414 C-37.6737331 223.58591631 -42.73298968 233.32519473 -47.81884766 243.05126953 C-49.19601119 245.68628429 -50.56884017 248.32352572 -51.94140625 250.9609375 C-54.33939881 255.55917305 -56.76266612 260.14319009 -59.2109375 264.71484375 C-59.77385498 265.77010254 -59.77385498 265.77010254 -60.34814453 266.84667969 C-61.41405971 268.83123011 -62.49635624 270.80570827 -63.5859375 272.77734375 C-64.49472656 274.43443359 -64.49472656 274.43443359 -65.421875 276.125 C-67.33908438 278.90034895 -68.03499688 279.74965976 -71.2109375 280.71484375 C-74.04098877 281.18506765 -76.79953745 281.55684236 -79.6484375 281.83984375 C-80.46868408 281.92476074 -81.28893066 282.00967773 -82.1340332 282.09716797 C-91.81758376 283.00360447 -101.4964811 282.88883401 -111.2109375 282.71484375 C-100.10399152 259.8800666 -87.72480556 237.6869374 -75.00512695 215.71826172 C-64.25718586 197.1482915 -53.80552144 178.42697944 -43.6484375 159.52734375 C-38.80866114 150.52427912 -33.72580654 141.68990632 -28.53125 132.88769531 C-22.28618816 122.2480894 -16.43950105 111.39644707 -10.71435547 100.46923828 C-9.2109375 97.71484375 -9.2109375 97.71484375 -7.66455078 95.31591797 C-3.91039622 89.41394762 -3.72587628 85.48594323 -5.2109375 78.71484375 C-5.53843994 77.2129248 -5.53843994 77.2129248 -5.87255859 75.68066406 C-6.65061461 72.38058142 -7.5123394 69.11247389 -8.3984375 65.83984375 C-8.67751953 64.74542969 -8.95660156 63.65101563 -9.24414062 62.5234375 C-12.08198394 51.93633994 -16.15343668 39.07799599 -26.0234375 33.02734375 C-26.64863281 32.63160156 -27.27382813 32.23585938 -27.91796875 31.828125 C-37.52577942 27.16334469 -48.51865724 27.26075163 -58.51757812 30.50756836 C-60.44168031 31.18601578 -62.35214887 31.90276025 -64.26171875 32.62109375 C-67.2109375 33.71484375 -67.2109375 33.71484375 -69.2109375 33.71484375 C-69.29830486 29.98582561 -69.35145232 26.2570721 -69.3984375 22.52734375 C-69.42357422 21.47224609 -69.44871094 20.41714844 -69.47460938 19.33007812 C-69.48427734 18.30849609 -69.49394531 17.28691406 -69.50390625 16.234375 C-69.5196167 15.29698486 -69.53532715 14.35959473 -69.55151367 13.39379883 C-69.14187418 10.17159513 -68.10368068 8.33243118 -66.2109375 5.71484375 C-58.44569295 0.40046544 -49.23132508 -2.01843514 -40.2109375 -4.28515625 C-39.58703125 -4.46095215 -38.963125 -4.63674805 -38.3203125 -4.81787109 C-26.01105133 -7.54471437 -10.88156588 -6.32515048 0 0 Z " fill="#E6E7E7" transform="translate(500.2109375,371.28515625)"/>
<path d="M0 0 C3.61345275 2.71797231 6.3991616 5.5103766 9.1875 9.0625 C12.34106986 13.00053998 15.57906128 16.79176627 19 20.5 C22.27418423 24.05670244 25.40642433 27.67161811 28.4375 31.4375 C32.57411397 36.56250846 36.96319216 41.39563155 41.4375 46.22265625 C44.10186139 49.1104016 46.69380703 52.04969384 49.265625 55.01953125 C51.27264538 57.31133155 53.32402851 59.55996752 55.375 61.8125 C58.42858867 65.18940982 61.34429205 68.63217132 64.1875 72.1875 C68.49406264 77.51979385 73.13594489 82.47195923 77.84204102 87.44750977 C82.02365114 91.89135358 85.91897587 96.48771327 89.7265625 101.2578125 C92.37342215 104.45041641 95.16566643 107.47440868 98 110.5 C102.43837137 115.23861823 106.59142657 120.12119833 110.65625 125.1875 C113.33208278 128.39849934 116.14359707 131.45027636 119 134.5 C123.45550447 139.25743042 127.6313357 144.15818292 131.71484375 149.2421875 C135.14347592 153.37998974 138.79892913 157.29671107 142.44921875 161.23828125 C146.67333272 165.81170939 150.73432248 170.51670681 154.77734375 175.25 C155.80984183 176.45837948 156.84239546 177.6667115 157.875 178.875 C158.39481445 179.4836792 158.91462891 180.0923584 159.45019531 180.71948242 C162.47918656 184.25662058 165.55164023 187.74409531 168.6875 191.1875 C171.64132181 194.43670399 174.44449748 197.75874685 177.1875 201.1875 C181.49341648 206.51899379 186.13461847 211.47036093 190.83984375 216.4453125 C195.04278996 220.91208001 198.96488699 225.53023881 202.79296875 230.32421875 C205.25978703 233.31496304 207.8596858 236.16363635 210.5 239 C214.78965697 243.60993554 218.80411572 248.37784075 222.75390625 253.28515625 C225.0883059 256.10673495 227.51990598 258.80590712 230 261.5 C234.89617712 266.82259379 239.46818797 272.36658149 244 278 C247.02236935 282.05354056 247.02236935 282.05354056 251 285 C251 285.66 251 286.32 251 287 C250.05382812 287.1959375 249.10765625 287.391875 248.1328125 287.59375 C237.69701258 289.90347634 228.3684337 293.60988344 218.73901367 298.21557617 C217 299 217 299 214 300 C213.48953125 299.36835937 212.9790625 298.73671875 212.453125 298.0859375 C204.63546947 288.46634009 196.65385668 278.98362514 188.3125 269.8125 C185.3208184 266.52057795 182.47475577 263.15408693 179.6875 259.6875 C175.274613 254.23128595 170.55528972 249.11384549 165.7734375 243.984375 C161.46894486 239.36646239 157.35687595 234.59238393 153.26171875 229.7890625 C152.23716908 228.58837959 151.21242354 227.38786379 150.1875 226.1875 C149.67018311 225.58131836 149.15286621 224.97513672 148.61987305 224.35058594 C145.41497771 220.6092918 142.14790722 216.93884617 138.8125 213.3125 C135.62263156 209.83863691 132.57951106 206.30089975 129.625 202.625 C125.75716454 197.82779065 121.64890505 193.32795793 117.43969727 188.83422852 C114.34249154 185.50880245 111.40392933 182.11298325 108.5625 178.5625 C105.05356861 174.18748028 101.34155495 170.07979091 97.5 166 C92.87706979 161.09037644 88.5339901 156.05521692 84.31640625 150.7890625 C80.64013503 146.36265837 76.69573628 142.19198888 72.7734375 137.984375 C68.48018201 133.37851774 64.37670578 128.6189993 60.296875 123.82421875 C59.28156606 122.63254314 58.26593033 121.4411459 57.25 120.25 C56.73526123 119.64639648 56.22052246 119.04279297 55.69018555 118.42089844 C52.30910541 114.47534047 48.84903479 110.61891344 45.3125 106.8125 C41.92475627 103.16586624 38.68102204 99.44382599 35.5625 95.5625 C31.19859541 90.14091657 26.5157847 85.07157883 21.7734375 79.984375 C17.46894486 75.36646239 13.35687595 70.59238393 9.26171875 65.7890625 C8.23716908 64.58837959 7.21242354 63.38786379 6.1875 62.1875 C5.67018311 61.58131836 5.15286621 60.97513672 4.61987305 60.35058594 C1.41497771 56.6092918 -1.85209278 52.93884617 -5.1875 49.3125 C-9.37310187 44.7549949 -13.31233643 40.03803841 -17.1875 35.21484375 C-18.96126357 32.97246433 -18.96126357 32.97246433 -21 31 C-20.74038849 27.15450458 -18.61072495 25.28105004 -16 22.625 C-10.40593845 16.61921552 -6.27979372 9.95805787 -2 3 C-1.34 2.01 -0.68 1.02 0 0 Z " fill="#E7E7E8" transform="translate(595,257)"/>
<path d="M0 0 C0.66 0 1.32 0 2 0 C3.38951021 2.03693036 4.67183049 4.07519835 5.9375 6.1875 C11.06778852 14.48401324 17.09521363 22.09521363 24 29 C23.38253906 29.66644531 22.76507813 30.33289063 22.12890625 31.01953125 C17.80243461 35.72794407 13.57315377 40.4532455 9.5625 45.4375 C5.90428985 49.97316443 2.05257035 54.2570117 -1.91381836 58.51928711 C-4.90427 61.75193975 -7.73779007 65.06696766 -10.5 68.5 C-14.1356405 73.01858176 -17.96836402 77.27983329 -21.91625977 81.52172852 C-24.88715628 84.7329905 -27.69961077 88.02627815 -30.4375 91.4375 C-33.80346464 95.62237553 -37.33177829 99.58312431 -41 103.5 C-45.47915827 108.28316399 -49.68451422 113.20814948 -53.7890625 118.3203125 C-56.1093495 121.13253315 -58.53071134 123.81797263 -61 126.5 C-64.27418423 130.05670244 -67.40642433 133.67161811 -70.4375 137.4375 C-74.09506264 141.97236161 -77.94617027 146.25536183 -81.91162109 150.51708984 C-85.71398807 154.62779276 -89.24270592 158.92275584 -92.75390625 163.28515625 C-95.88284821 167.06709479 -99.21517445 170.6475587 -102.5390625 174.2578125 C-104.91039895 176.90015883 -107.15252997 179.60694167 -109.375 182.375 C-113.24218863 187.1714071 -117.34980716 191.6704146 -121.55810547 196.16357422 C-124.67539336 199.51081785 -127.63566482 202.92995906 -130.5 206.5 C-133.84301959 210.6666621 -137.35115137 214.60419812 -141 218.5 C-145.45874444 223.26088994 -149.6379783 228.1646782 -153.72265625 233.25390625 C-156.21826469 236.26319052 -158.83765143 239.13938654 -161.5 242 C-164.97419243 245.73327255 -168.3006871 249.52371111 -171.5 253.5 C-175.13499389 258.01777813 -178.9671029 262.27818516 -182.9140625 266.51953125 C-185.90441358 269.75211747 -188.73786329 273.06705866 -191.5 276.5 C-195.19935221 281.09596361 -199.09228683 285.45080998 -203.10083008 289.77441406 C-206.49895227 293.43999509 -209.78339804 297.17485173 -213 301 C-219.1019152 299.09746424 -224.88905888 296.54223918 -230.74804688 294.00976562 C-236.0890447 291.7281326 -241.46076076 289.74674166 -247 288 C-245.47554877 283.00055745 -242.48438769 279.80313596 -239.0625 276 C-237.88077224 274.6634127 -236.69979532 273.32616123 -235.51953125 271.98828125 C-234.92736816 271.32006348 -234.33520508 270.6518457 -233.72509766 269.96337891 C-231.18802399 267.07586879 -228.71824101 264.13382174 -226.25 261.1875 C-223.02642838 257.35253142 -219.74760146 253.58019365 -216.375 249.875 C-213.38029289 246.58399678 -210.53324295 243.22146302 -207.75 239.75 C-203.65177478 234.67737158 -199.26890849 229.94092006 -194.80224609 225.19677734 C-190.73862191 220.85741148 -186.95837434 216.35276795 -183.2421875 211.7109375 C-180.76093291 208.71095373 -178.15132395 205.84849592 -175.5 203 C-171.21036948 198.39003752 -167.19588653 193.62216205 -163.24609375 188.71484375 C-160.11832821 184.93432714 -156.78726117 181.35519125 -153.46484375 177.74609375 C-151.07292703 175.08124834 -148.80745116 172.35168175 -146.5625 169.5625 C-142.90493736 165.02763839 -139.05382973 160.74463817 -135.08837891 156.48291016 C-131.28601193 152.37220724 -127.75729408 148.07724416 -124.24609375 143.71484375 C-121.9116941 140.89326505 -119.48009402 138.19409288 -117 135.5 C-113.70668301 131.92207537 -110.55348679 128.28460334 -107.5 124.5 C-103.66164586 119.74260332 -99.60377641 115.24216082 -95.46484375 110.74609375 C-93.07292703 108.08124834 -90.80745116 105.35168175 -88.5625 102.5625 C-84.90493736 98.02763839 -81.05382973 93.74463817 -77.08837891 89.48291016 C-73.28601193 85.37220724 -69.75729408 81.07724416 -66.24609375 76.71484375 C-63.9116941 73.89326505 -61.48009402 71.19409288 -59 68.5 C-55.70668301 64.92207537 -52.55348679 61.28460334 -49.5 57.5 C-45.66164586 52.74260332 -41.60377641 48.24216082 -37.46484375 43.74609375 C-35.07292703 41.08124834 -32.80745116 38.35168175 -30.5625 35.5625 C-27.34056036 31.56774944 -23.99336035 27.75454617 -20.5 24 C-15.41324445 18.53080825 -10.68614939 12.81666014 -6 7 C-4.05083685 4.59909946 -2.0844647 2.28782711 0 0 Z " fill="#E7E7E8" transform="translate(427,256)"/>
<path d="M0 0 C1.93243475 2.48558905 3.58593456 4.91890676 5.015625 7.72265625 C5.5571521 8.77078491 5.5571521 8.77078491 6.10961914 9.84008789 C6.48594482 10.57348389 6.86227051 11.30687988 7.25 12.0625 C10.83844051 18.96221002 14.69599608 25.51867645 19 32 C9.8931326 38.87845245 0.37378873 45.09226046 -9.17211914 51.33691406 C-25.36594831 61.93427443 -41.47613396 72.64755332 -57.5 83.5 C-73.1011041 94.0637778 -88.78899647 104.48646366 -104.53662109 114.83041382 C-118.40289707 123.94067381 -132.19580738 133.14949569 -145.9052124 142.49411011 C-147.54527411 143.61150404 -149.18667953 144.72692494 -150.828125 145.84228516 C-153.00925833 147.32603334 -155.18581824 148.81534433 -157.359375 150.31005859 C-158.42671875 151.03660645 -159.4940625 151.7631543 -160.59375 152.51171875 C-161.53927734 153.15971436 -162.48480469 153.80770996 -163.45898438 154.4753418 C-165.72756537 155.83653399 -167.4166446 156.5617251 -170 157 C-170.4125 156.01902344 -170.825 155.03804687 -171.25 154.02734375 C-174.65421487 146.03865328 -178.28394418 138.2894813 -182.50976562 130.69897461 C-185 126.19251334 -185 126.19251334 -185 124 C-182.86203629 122.42077434 -180.72631427 120.96762698 -178.4921875 119.53515625 C-177.10374286 118.62791733 -175.71539965 117.72052316 -174.32714844 116.81298828 C-173.2488678 116.11317841 -173.2488678 116.11317841 -172.14880371 115.39923096 C-168.81402859 113.22773406 -165.50541957 111.01743069 -162.1953125 108.80859375 C-160.8688322 107.92579602 -159.54225211 107.04314823 -158.21557617 106.16064453 C-145.52366784 97.71264149 -132.85740764 89.23091032 -120.26806641 80.63061523 C-113.54426353 76.0379599 -106.78295898 71.50479626 -100 67 C-84.04422011 56.40119234 -68.15105983 45.71260889 -52.27593994 34.99346924 C-34.89622797 23.26021313 -17.46586756 11.60454552 0 0 Z " fill="#E7E7E8" transform="translate(769,664)"/>
<path d="M0 0 C3.41287174 1.26638288 6.31540242 2.71886825 9.32446289 4.76220703 C10.14624527 5.31683624 10.96802765 5.87146545 11.81471252 6.44290161 C12.69183395 7.0418222 13.56895538 7.6407428 14.47265625 8.2578125 C15.85099892 9.19063553 15.85099892 9.19063553 17.25718689 10.14230347 C20.1953183 12.13211302 23.1289958 14.12837663 26.0625 16.125 C28.009465 17.44575576 29.95672766 18.76607287 31.90429688 20.0859375 C34.7432413 22.01009112 37.58191821 23.93462756 40.41934204 25.86102295 C45.88246252 29.56968056 51.36072526 33.25257862 56.86108398 36.90576172 C61.02214479 39.68195987 65.16736679 42.48134407 69.3125 45.28125 C70.15940903 45.85326141 71.00631805 46.42527283 71.87889099 47.01461792 C73.65935216 48.21723537 75.43979289 49.41988308 77.22021484 50.62255859 C92.49486278 60.93891575 107.79370351 71.21688122 123.14141846 81.42419434 C140.71136222 93.11221949 158.19930842 104.92174317 175.68319702 116.73797607 C179.77980024 119.50570749 183.88286891 122.26288998 188 125 C186.53908477 129.20496236 184.42182065 132.40713164 181.8125 136 C177.2600262 142.38050848 173.55413445 149.01744004 170 156 C166.66621846 154.75773197 163.80617681 153.36326988 160.8659668 151.36474609 C160.08194992 150.83529388 159.29793304 150.30584167 158.49015808 149.76034546 C157.23239311 148.90057602 157.23239311 148.90057602 155.94921875 148.0234375 C155.06748489 147.42632965 154.18575104 146.8292218 153.27729797 146.21401978 C150.41115069 144.2718902 147.54938856 142.3233983 144.6875 140.375 C142.70154647 139.02809334 140.7152168 137.68174113 138.72851562 136.3359375 C135.7867589 134.34316678 132.8451731 132.35015269 129.90475464 130.35540771 C123.29188919 125.86975622 116.65995211 121.41550371 110 117 C102.82611621 112.23775946 95.67903865 107.43770519 88.546875 102.61328125 C69.66335519 89.84262187 50.73876272 77.14446551 31.6875 64.625 C8.2592142 49.22704389 8.2592142 49.22704389 -2.4375 41.9375 C-3.69590698 41.08115967 -3.69590698 41.08115967 -4.97973633 40.20751953 C-8.77423335 37.60373347 -12.45356547 34.94008588 -16 32 C-14.66867325 28.34372214 -13.01421265 25.38678498 -10.8125 22.1875 C-6.26000836 15.20573762 -3.16910626 7.67713582 0 0 Z " fill="#E7E7E8" transform="translate(253,664)"/>
<path d="M0 0 C5.11505914 3.80350552 8.79349677 8.31654217 12.76171875 13.28515625 C15.16236539 16.19693533 17.72053019 18.81422624 20.42578125 21.4375 C22.82894029 23.82276951 24.93792559 26.31305456 27 29 C27 29.66 27 30.32 27 31 C27.66 31.33 28.32 31.66 29 32 C28.01 32 27.02 32 26 32 C24.16015625 30.05078125 24.16015625 30.05078125 22.0625 27.3125 C18.00824389 22.17666656 13.73221734 17.35807813 9.25024414 12.59301758 C0 2.72743719 0 2.72743719 0 0 Z " fill="#EDEDED" transform="translate(660,384)"/>
<path d="M0 0 C3.3 0 6.6 0 10 0 C1.94955113 5.36696591 -11.61065147 6.08230514 -21 5 C-21.99 4.34 -22.98 3.68 -24 3 C-16.08 2.67 -8.16 2.34 0 2 C0 1.34 0 0.68 0 0 Z " fill="#D6D7D7" transform="translate(605,652)"/>
<path d="M0 0 C0.66 0 1.32 0 2 0 C2.33 6.6 2.66 13.2 3 20 C3.66 20.33 4.32 20.66 5 21 C3.35 21.66 1.7 22.32 0 23 C0 15.41 0 7.82 0 0 Z " fill="#D2D2D2" transform="translate(431,382)"/>
<path d="M0 0 C4.93872808 3.99915621 9.1821935 8.24992262 13.25 13.125 C13.765625 13.73214844 14.28125 14.33929688 14.8125 14.96484375 C17.30313358 17.9112376 19.73143217 20.8768347 22 24 C21.34 24.33 20.68 24.66 20 25 C19.47792969 24.34515625 18.95585938 23.6903125 18.41796875 23.015625 C13.63560365 17.08582729 8.71605293 11.39473882 3.45581055 5.88574219 C0 2.21189748 0 2.21189748 0 0 Z " fill="#0F0F10" transform="translate(591,308)"/>
<path d="M0 0 C6.29896157 4.95875698 11.03454514 10.73517377 16 17 C17.01614351 18.23304653 18.03590206 19.46314382 19.0625 20.6875 C19.701875 21.450625 20.34125 22.21375 21 23 C20.67 23.66 20.34 24.32 20 25 C2.75796844 6.20903889 2.75796844 6.20903889 0 0 Z " fill="#0F0F0F" transform="translate(813,504)"/>
<path d="M0 0 C1 2 1 2 0.46875 3.7421875 C-7.53064799 21.35376532 -7.53064799 21.35376532 -13 25 C-13 19.82324333 -11.5606466 19.5606466 -8 16 C-6.35966085 13.32351214 -5.02410028 10.52555639 -3.6875 7.6875 C-3.32849609 6.94693359 -2.96949219 6.20636719 -2.59960938 5.44335938 C-1.72380415 3.63336192 -0.86059209 1.81728007 0 0 Z " fill="#5A925E" transform="translate(599,883)"/>
<path d="M0 0 C7.06095454 5.70885686 15.02984294 12.18381951 18 21 C14.22393775 18.17627797 11.35642564 15.19561369 8.4375 11.5 C6.28468115 8.78379181 4.20594646 6.20064767 1.72265625 3.78125 C0 2 0 2 0 0 Z " fill="#F0F0F1" transform="translate(767,454)"/>
<path d="M0 0 C6.26755599 4.89175102 11.28915495 10.60976003 16 17 C15.67 17.66 15.34 18.32 15 19 C13.24797712 17.10600285 11.49835022 15.20988262 9.75 13.3125 C9.25886719 12.78205078 8.76773438 12.25160156 8.26171875 11.70507812 C0 2.72734375 0 2.72734375 0 0 Z " fill="#EDEDED" transform="translate(754,491)"/>
<path d="M0 0 C5.24972347 4.10037573 9.20962911 8.52964787 13 14 C9.16549144 12.45212498 6.97444301 10.06277254 4.25 7 C3.45078125 6.113125 2.6515625 5.22625 1.828125 4.3125 C0 2 0 2 0 0 Z " fill="#EFEFEF" transform="translate(790,480)"/>
<path d="M0 0 C3.66786393 1.50349377 5.68910393 3.63728792 8.25 6.625 C8.95640625 7.44226563 9.6628125 8.25953125 10.390625 9.1015625 C10.92171875 9.72804688 11.4528125 10.35453125 12 11 C11.01 11 10.02 11 9 11 C7.06839391 9.0332738 5.42908434 6.91042232 3.71875 4.75 C3.1515625 4.1725 2.584375 3.595 2 3 C1.01 3 0.02 3 -1 3 C-0.67 2.01 -0.34 1.02 0 0 Z " fill="#100F0F" transform="translate(572,287)"/>
<path d="M0 0 C-1.74468372 0.70088156 -3.49601161 1.38524009 -5.25 2.0625 C-6.22453125 2.44535156 -7.1990625 2.82820312 -8.203125 3.22265625 C-11.04007395 4.01113787 -12.29409552 4.02437812 -15 3 C-13.35 2.67 -11.7 2.34 -10 2 C-10 1.34 -10 0.68 -10 0 C-6.26432828 -0.76411467 -3.65188082 -1.07174763 0 0 Z " fill="#5E9462" transform="translate(202,722)"/>
<path d="M0 0 C0.66 0.33 1.32 0.66 2 1 C1.3503125 1.5878125 1.3503125 1.5878125 0.6875 2.1875 C-1.13175226 3.99843418 -1.13175226 3.99843418 -2.4375 6.5625 C-4.10114089 9.15777979 -5.16764125 9.92565703 -8 11 C-6.63629701 8.00779732 -5.05091917 5.70973471 -2.875 3.25 C-2.33617187 2.63640625 -1.79734375 2.0228125 -1.2421875 1.390625 C-0.62730469 0.70226562 -0.62730469 0.70226562 0 0 Z " fill="#54985C" transform="translate(446,152)"/>
<path d="M0 0 C0.99 0 1.98 0 3 0 C3 2.31 3 4.62 3 7 C1.35 6.01 -0.3 5.02 -2 4 C-1.34 2.68 -0.68 1.36 0 0 Z " fill="#5A9160" transform="translate(451,280)"/>
<path d="M0 0 C3.3 0 6.6 0 10 0 C6.55549263 2.29633824 4.06187717 2.54016485 0 3 C0 2.01 0 1.02 0 0 Z " fill="#DDDEDE" transform="translate(605,652)"/>
<path d="M0 0 C0.66 0.33 1.32 0.66 2 1 C-0.64 2.98 -3.28 4.96 -6 7 C-6.66 6.34 -7.32 5.68 -8 5 C-6.71475739 4.13619741 -5.42157581 3.28419631 -4.125 2.4375 C-3.04605469 1.72400391 -3.04605469 1.72400391 -1.9453125 0.99609375 C-1.30335938 0.66738281 -0.66140625 0.33867187 0 0 Z " fill="#0E0C0D" transform="translate(565,292)"/>
<path d="M0 0 C1.32 1.32 2.64 2.64 4 4 C2.35 4 0.7 4 -1 4 C-1.66 5.32 -2.32 6.64 -3 8 C-2.45276317 4.62537285 -1.9451 2.91765 0 0 Z " fill="#EFEDEE" transform="translate(595,257)"/>
<path d="M0 0 C1.80330533 3.60661066 2.46599103 6.08393425 3 10 C2.01 9.67 1.02 9.34 0 9 C0 6.03 0 3.06 0 0 Z " fill="#252525" transform="translate(531,583)"/>
<path d="M0 0 C0.33 0.99 0.66 1.98 1 3 C-1 6 -1 6 -3.625 6.6875 C-4.800625 6.8421875 -4.800625 6.8421875 -6 7 C-4.02 4.69 -2.04 2.38 0 0 Z " fill="#639A69" transform="translate(808,555)"/>
</svg>
